<svg width="30" height="30" viewBox="0 0 35 35" xmlns="http://www.w3.org/2000/svg">
  <path d="M27.0301 23.8826H14.4801C13.3381 23.8744 12.2319 23.4791 11.3395 22.7602C10.4471 22.0413 9.82041 21.0406 9.56015 19.919L7.56015 11.7194C7.37615 10.9581 7.36671 10.1644 7.53257 9.39883C7.69843 8.63324 8.03521 7.91589 8.51729 7.30132C8.99938 6.68675 9.61408 6.19114 10.3146 5.85221C11.0152 5.51327 11.7832 5.33992 12.5601 5.34534H29.0602C29.8371 5.33992 30.6051 5.51327 31.3057 5.85221C32.0062 6.19114 32.6209 6.68675 33.103 7.30132C33.5851 7.91589 33.9219 8.63324 34.0877 9.39883C34.2536 10.1644 34.2442 10.9581 34.0602 11.7194L32.0602 19.9391C31.7901 21.0747 31.145 22.0838 30.2308 22.8005C29.3166 23.5172 28.1879 23.8988 27.0301 23.8826ZM12.5001 7.86673C12.1049 7.86795 11.715 7.95935 11.3597 8.13409C11.0045 8.30882 10.693 8.56237 10.4487 8.87574C10.2043 9.18911 10.0335 9.55417 9.94886 9.94358C9.86426 10.333 9.86812 10.7367 9.96015 11.1244L11.9601 19.3441C12.0956 19.9201 12.4203 20.433 12.8815 20.7992C13.3427 21.1655 13.9132 21.3635 14.5001 21.3612H27.0301C27.6171 21.3635 28.1876 21.1655 28.6488 20.7992C29.11 20.433 29.4347 19.9201 29.5702 19.3441L31.5701 11.1244C31.6642 10.7365 31.6695 10.3322 31.5857 9.94191C31.5019 9.55167 31.3312 9.18576 31.0865 8.8719C30.8418 8.55803 30.5295 8.30442 30.1732 8.13028C29.8169 7.95613 29.4261 7.86601 29.0301 7.86673H12.5001Z"/>
  <path d="M9.02 13.8677C8.73442 13.8643 8.4586 13.7624 8.23846 13.5789C8.01831 13.3954 7.8671 13.1414 7.81 12.8591L6.02 5.02264C5.85471 4.30877 5.45409 3.67261 4.88368 3.21824C4.31327 2.76388 3.60685 2.51821 2.88 2.52143H1.25C0.918479 2.52143 0.600537 2.3886 0.366117 2.15218C0.131696 1.91575 0 1.59509 0 1.26073C0 0.926373 0.131696 0.605711 0.366117 0.369284C0.600537 0.132858 0.918479 3.51654e-05 1.25 3.51654e-05H2.88C4.1718 -0.00451616 5.42696 0.43285 6.44046 1.2407C7.45396 2.04854 8.1659 3.17912 8.46 4.44777L10.24 12.2843C10.2785 12.4452 10.285 12.6123 10.259 12.7758C10.233 12.9393 10.175 13.096 10.0885 13.2367C10.002 13.3774 9.88862 13.4994 9.75498 13.5956C9.62134 13.6918 9.47009 13.7603 9.31 13.7971C9.21604 13.8308 9.11884 13.8544 9.02 13.8677ZM14.67 34.7952C13.8789 34.7952 13.1055 34.5586 12.4477 34.1153C11.7899 33.6721 11.2772 33.042 10.9745 32.3048C10.6717 31.5677 10.5925 30.7565 10.7469 29.974C10.9012 29.1914 11.2822 28.4726 11.8416 27.9084C12.401 27.3442 13.1137 26.96 13.8896 26.8043C14.6656 26.6486 15.4698 26.7285 16.2007 27.0339C16.9316 27.3392 17.5564 27.8563 17.9959 28.5197C18.4354 29.1831 18.67 29.9631 18.67 30.761C18.67 31.8309 18.2486 32.8571 17.4984 33.6136C16.7483 34.3702 15.7309 34.7952 14.67 34.7952ZM14.67 29.2078C14.3694 29.2078 14.0755 29.2977 13.8255 29.4662C13.5756 29.6346 13.3807 29.8741 13.2657 30.1542C13.1507 30.4343 13.1206 30.7425 13.1792 31.0399C13.2379 31.3373 13.3826 31.6104 13.5952 31.8248C13.8078 32.0392 14.0786 32.1852 14.3735 32.2444C14.6683 32.3035 14.9739 32.2732 15.2517 32.1571C15.5294 32.0411 15.7668 31.8446 15.9338 31.5925C16.1009 31.3404 16.19 31.044 16.19 30.7408C16.19 30.3342 16.0299 29.9443 15.7448 29.6568C15.4597 29.3693 15.0731 29.2078 14.67 29.2078ZM28.49 34.7952C27.6989 34.7952 26.9255 34.5586 26.2677 34.1153C25.6099 33.6721 25.0972 33.042 24.7945 32.3048C24.4917 31.5677 24.4125 30.7565 24.5669 29.974C24.7212 29.1914 25.1022 28.4726 25.6616 27.9084C26.221 27.3442 26.9337 26.96 27.7096 26.8043C28.4856 26.6486 29.2898 26.7285 30.0207 27.0339C30.7516 27.3392 31.3764 27.8563 31.8159 28.5197C32.2554 29.1831 32.49 29.9631 32.49 30.761C32.49 31.8309 32.0686 32.8571 31.3184 33.6136C30.5683 34.3702 29.5509 34.7952 28.49 34.7952ZM28.49 29.2078C28.1898 29.2098 27.8969 29.3014 27.6483 29.4711C27.3996 29.6407 27.2064 29.8808 27.0929 30.1611C26.9793 30.4414 26.9507 30.7493 27.0104 31.046C27.0702 31.3427 27.2158 31.615 27.4287 31.8283C27.6417 32.0417 27.9125 32.1867 28.2071 32.2451C28.5017 32.3034 28.8068 32.2725 29.084 32.1562C29.3611 32.0398 29.5979 31.8433 29.7645 31.5915C29.9311 31.3396 30.02 31.0436 30.02 30.7408C30.02 30.5387 29.9804 30.3385 29.9033 30.1518C29.8263 29.9652 29.7135 29.7957 29.5713 29.6532C29.4291 29.5108 29.2603 29.3981 29.0747 29.3216C28.8892 29.2452 28.6904 29.2065 28.49 29.2078Z" />
  <path d="M28.4899 29.2078H11.8299C10.7982 29.2078 9.80881 28.7945 9.0793 28.0587C8.34978 27.323 7.93994 26.3251 7.93994 25.2846C7.93994 24.244 8.34978 23.2461 9.0793 22.5104C9.80881 21.7746 10.7982 21.3613 11.8299 21.3613H14.4799C14.8115 21.3613 15.1294 21.4941 15.3638 21.7305C15.5982 21.9669 15.7299 22.2876 15.7299 22.622C15.7299 22.9563 15.5982 23.277 15.3638 23.5134C15.1294 23.7498 14.8115 23.8827 14.4799 23.8827H11.8299C11.4613 23.8827 11.1077 24.0304 10.8471 24.2933C10.5864 24.5562 10.4399 24.9127 10.4399 25.2846C10.4399 25.6564 10.5864 26.0129 10.8471 26.2758C11.1077 26.5387 11.4613 26.6864 11.8299 26.6864H28.4899C28.8215 26.6864 29.1394 26.8193 29.3738 27.0557C29.6082 27.2921 29.7399 27.6128 29.7399 27.9471C29.7399 28.2815 29.6082 28.6022 29.3738 28.8386C29.1394 29.075 28.8215 29.2078 28.4899 29.2078Z" />
</svg>
