<svg width="15" height="16" viewBox="0 0 15 16" xmlns="http://www.w3.org/2000/svg">
<path d="M14.0451 4.3655C14.0397 4.30037 13.9803 4.25 13.9091 4.25H12.0796C11.7344 4.25 11.4546 3.97018 11.4546 3.625C11.4546 1.62612 9.68046 0 7.5 0C5.31954 0 3.54545 1.62612 3.54545 3.625C3.54545 3.97018 3.26562 4.25 2.92045 4.25H1.09089C1.01971 4.25 0.960257 4.30037 0.954939 4.3655L0.000390964 15.8655C-0.00247268 15.9001 0.0104819 15.9344 0.0363911 15.9599C0.0621638 15.9855 0.0984366 16 0.136346 16H14.8637C14.9016 16 14.9378 15.9855 14.9636 15.96C14.9894 15.9345 15.0025 15.9003 14.9996 15.8656L14.0451 4.3655ZM4.63636 3.625C4.63636 2.17762 5.92091 1 7.5 1C9.0791 1 10.3636 2.17762 10.3636 3.625C10.3636 3.97018 10.0838 4.25 9.73865 4.25H5.26136C4.91618 4.25 4.63636 3.97018 4.63636 3.625ZM4.0909 7.75C3.33885 7.75 2.72726 7.18925 2.72726 6.5C2.72726 6.37737 2.74374 6.25771 2.7767 6.14406C2.93193 5.60881 3.54545 5.9427 3.54545 6.5C3.54545 6.77575 3.79022 7 4.0909 7C4.39158 7 4.63636 6.77575 4.63636 6.5C4.63636 5.94306 5.24861 5.60994 5.40471 6.14455C5.43793 6.25834 5.45454 6.3779 5.45454 6.5C5.45454 7.18925 4.84295 7.75 4.0909 7.75ZM10.9091 7.75C10.1571 7.75 9.54546 7.18925 9.54546 6.5C9.54546 6.37737 9.56194 6.25771 9.5949 6.14406C9.75013 5.60881 10.3636 5.9427 10.3636 6.5C10.3636 6.77575 10.6084 7 10.9091 7C11.2098 7 11.4546 6.77575 11.4546 6.5C11.4546 5.94306 12.0668 5.60994 12.2229 6.14455C12.2561 6.25834 12.2727 6.3779 12.2727 6.5C12.2727 7.18925 11.6611 7.75 10.9091 7.75Z" />
</svg>
